<svg width="147" height="59" viewBox="0 0 147 59" fill="none" xmlns="http://www.w3.org/2000/svg">
<path d="M22.6676 20.664V36.344C22.6676 38.52 22.0383 40.216 20.7796 41.432C19.521 42.6267 17.8356 43.224 15.7236 43.224C13.5903 43.224 11.8623 42.6053 10.5396 41.368C9.23829 40.1307 8.58762 38.4027 8.58762 36.184H13.0676C13.089 37.144 13.313 37.8907 13.7396 38.424C14.1876 38.9573 14.8276 39.224 15.6596 39.224C16.4703 39.224 17.089 38.968 17.5156 38.456C17.9423 37.944 18.1556 37.24 18.1556 36.344V20.664H22.6676ZM35.1256 43.288C33.419 43.288 31.883 42.9147 30.5176 42.168C29.1523 41.4 28.075 40.3227 27.2856 38.936C26.5176 37.5493 26.1336 35.9493 26.1336 34.136C26.1336 32.3227 26.5283 30.7227 27.3176 29.336C28.1283 27.9493 29.227 26.8827 30.6136 26.136C32.0003 25.368 33.547 24.984 35.2536 24.984C36.9603 24.984 38.507 25.368 39.8936 26.136C41.2803 26.8827 42.3683 27.9493 43.1576 29.336C43.9683 30.7227 44.3736 32.3227 44.3736 34.136C44.3736 35.9493 43.9576 37.5493 43.1256 38.936C42.315 40.3227 41.2056 41.4 39.7976 42.168C38.411 42.9147 36.8536 43.288 35.1256 43.288ZM35.1256 39.384C35.9363 39.384 36.6936 39.192 37.3976 38.808C38.123 38.4027 38.699 37.8053 39.1256 37.016C39.5523 36.2267 39.7656 35.2667 39.7656 34.136C39.7656 32.4507 39.3176 31.16 38.4216 30.264C37.547 29.3467 36.4696 28.888 35.1896 28.888C33.9096 28.888 32.8323 29.3467 31.9576 30.264C31.1043 31.16 30.6776 32.4507 30.6776 34.136C30.6776 35.8213 31.0936 37.1227 31.9256 38.04C32.779 38.936 33.8456 39.384 35.1256 39.384ZM51.4999 27.864C52.0759 27.0107 52.8652 26.3173 53.8679 25.784C54.8919 25.2507 56.0545 24.984 57.3559 24.984C58.8705 24.984 60.2359 25.3573 61.4519 26.104C62.6892 26.8507 63.6599 27.9173 64.3639 29.304C65.0892 30.6693 65.4519 32.2587 65.4519 34.072C65.4519 35.8853 65.0892 37.496 64.3639 38.904C63.6599 40.2907 62.6892 41.368 61.4519 42.136C60.2359 42.904 58.8705 43.288 57.3559 43.288C56.0332 43.288 54.8705 43.032 53.8679 42.52C52.8865 41.9867 52.0972 41.304 51.4999 40.472V43H47.0199V19.32H51.4999V27.864ZM60.8759 34.072C60.8759 33.0053 60.6519 32.088 60.2039 31.32C59.7772 30.5307 59.2012 29.9333 58.4759 29.528C57.7719 29.1227 57.0039 28.92 56.1719 28.92C55.3612 28.92 54.5932 29.1333 53.8679 29.56C53.1639 29.9653 52.5879 30.5627 52.1399 31.352C51.7132 32.1413 51.4999 33.0693 51.4999 34.136C51.4999 35.2027 51.7132 36.1307 52.1399 36.92C52.5879 37.7093 53.1639 38.3173 53.8679 38.744C54.5932 39.1493 55.3612 39.352 56.1719 39.352C57.0039 39.352 57.7719 39.1387 58.4759 38.712C59.2012 38.2853 59.7772 37.6773 60.2039 36.888C60.6519 36.0987 60.8759 35.16 60.8759 34.072ZM74.8514 43.288C73.4007 43.288 72.0994 43.032 70.9474 42.52C69.7954 41.9867 68.878 41.272 68.1954 40.376C67.534 39.48 67.1714 38.488 67.1074 37.4H71.6194C71.7047 38.0827 72.0354 38.648 72.6114 39.096C73.2087 39.544 73.9447 39.768 74.8194 39.768C75.6727 39.768 76.334 39.5973 76.8034 39.256C77.294 38.9147 77.5394 38.4773 77.5394 37.944C77.5394 37.368 77.2407 36.9413 76.6434 36.664C76.0674 36.3653 75.1394 36.0453 73.8594 35.704C72.5367 35.384 71.4487 35.0533 70.5954 34.712C69.7634 34.3707 69.038 33.848 68.4194 33.144C67.822 32.44 67.5234 31.4907 67.5234 30.296C67.5234 29.3147 67.8007 28.4187 68.3554 27.608C68.9314 26.7973 69.742 26.1573 70.7874 25.688C71.854 25.2187 73.102 24.984 74.5314 24.984C76.6434 24.984 78.3287 25.5173 79.5874 26.584C80.846 27.6293 81.5394 29.048 81.6674 30.84H77.3794C77.3154 30.136 77.0167 29.5813 76.4834 29.176C75.9714 28.7493 75.278 28.536 74.4034 28.536C73.5927 28.536 72.9634 28.6853 72.5154 28.984C72.0887 29.2827 71.8754 29.6987 71.8754 30.232C71.8754 30.8293 72.174 31.288 72.7714 31.608C73.3687 31.9067 74.2967 32.216 75.5554 32.536C76.8354 32.856 77.8914 33.1867 78.7234 33.528C79.5554 33.8693 80.27 34.4027 80.8674 35.128C81.486 35.832 81.806 36.7707 81.8274 37.944C81.8274 38.968 81.5394 39.8853 80.9634 40.696C80.4087 41.5067 79.598 42.1467 78.5314 42.616C77.486 43.064 76.2594 43.288 74.8514 43.288ZM101.345 33.752C101.345 34.392 101.302 34.968 101.217 35.48H88.2569C88.3635 36.76 88.8115 37.7627 89.6009 38.488C90.3902 39.2133 91.3609 39.576 92.5129 39.576C94.1769 39.576 95.3609 38.8613 96.0649 37.432H100.897C100.385 39.1387 99.4035 40.5467 97.9529 41.656C96.5022 42.744 94.7209 43.288 92.6089 43.288C90.9022 43.288 89.3662 42.9147 88.0009 42.168C86.6569 41.4 85.6009 40.3227 84.8329 38.936C84.0862 37.5493 83.7129 35.9493 83.7129 34.136C83.7129 32.3013 84.0862 30.6907 84.8329 29.304C85.5795 27.9173 86.6249 26.8507 87.9689 26.104C89.3129 25.3573 90.8595 24.984 92.6089 24.984C94.2942 24.984 95.7982 25.3467 97.1209 26.072C98.4649 26.7973 99.4995 27.832 100.225 29.176C100.972 30.4987 101.345 32.024 101.345 33.752ZM96.7049 32.472C96.6835 31.32 96.2675 30.4027 95.4569 29.72C94.6462 29.016 93.6542 28.664 92.4809 28.664C91.3715 28.664 90.4329 29.0053 89.6649 29.688C88.9182 30.3493 88.4595 31.2773 88.2889 32.472H96.7049ZM120.455 33.752C120.455 34.392 120.412 34.968 120.327 35.48H107.367C107.474 36.76 107.922 37.7627 108.711 38.488C109.5 39.2133 110.471 39.576 111.623 39.576C113.287 39.576 114.471 38.8613 115.175 37.432H120.007C119.495 39.1387 118.514 40.5467 117.063 41.656C115.612 42.744 113.831 43.288 111.719 43.288C110.012 43.288 108.476 42.9147 107.111 42.168C105.767 41.4 104.711 40.3227 103.943 38.936C103.196 37.5493 102.823 35.9493 102.823 34.136C102.823 32.3013 103.196 30.6907 103.943 29.304C104.69 27.9173 105.735 26.8507 107.079 26.104C108.423 25.3573 109.97 24.984 111.719 24.984C113.404 24.984 114.908 25.3467 116.231 26.072C117.575 26.7973 118.61 27.832 119.335 29.176C120.082 30.4987 120.455 32.024 120.455 33.752ZM115.815 32.472C115.794 31.32 115.378 30.4027 114.567 29.72C113.756 29.016 112.764 28.664 111.591 28.664C110.482 28.664 109.543 29.0053 108.775 29.688C108.028 30.3493 107.57 31.2773 107.399 32.472H115.815ZM133.581 43L127.565 35.448V43H123.085V19.32H127.565V32.792L133.517 25.272H139.341L131.533 34.168L139.405 43H133.581Z" fill="white"/>
<circle cx="2" cy="2" r="2" transform="matrix(1 0 0 -1 28 24)" fill="white"/>
<circle cx="2" cy="2" r="2" transform="matrix(1 0 0 -1 37 24)" fill="white"/>
</svg>
